<svg width="26" height="26" viewBox="0 0 26 26" fill="none" xmlns="http://www.w3.org/2000/svg">
<path d="M4.23431 2.61725H4.82858V5.70399C4.82858 7.14297 5.99651 8.31095 7.43553 8.31095C8.87451 8.31095 10.0425 7.14302 10.0425 5.70399V2.61725H14.9853V5.70399C14.9853 7.14297 16.1532 8.31095 17.5923 8.31095C19.0312 8.31095 20.1992 7.14302 20.1992 5.70399V2.61725H20.7935C23.1294 2.61725 25.0273 4.5152 25.0273 6.85091V20.8344C25.0273 23.1597 23.1294 25.0681 20.7937 25.0681H4.23451C1.89859 25.0681 0.000846863 23.1597 0.000846863 20.8344L0.000453949 10.1254V6.85096C0.000453949 4.51525 1.89841 2.6173 4.23432 2.6173L4.23431 2.61725ZM2.08613 20.8346C2.08613 22.0129 3.04531 22.9827 4.23431 22.9827L20.7935 22.9825C21.9824 22.9825 22.9417 22.0129 22.9417 20.8346V11.1678H2.08582L2.08613 20.8346Z" fill="#104651"/>
<path d="M17.59 6.7467C17.0165 6.7467 16.5471 6.28792 16.5471 5.70386V1.04284C16.5471 0.469183 17.0165 0 17.59 0C18.1634 0 18.6328 0.469183 18.6328 1.04284V5.70406C18.6326 6.28792 18.1634 6.7467 17.59 6.7467Z" fill="#104651"/>
<path d="M7.43548 6.7467C6.86202 6.7467 6.39263 6.28792 6.39263 5.70386L6.39283 1.04284C6.39283 0.469183 6.86221 0 7.43567 0C8.00914 0 8.47852 0.469183 8.47852 1.04284V5.70406C8.47832 6.28792 8.00894 6.7467 7.43548 6.7467Z" fill="#104651"/>
<path d="M9.088 20.1989H6.33494C5.37576 20.1989 4.58309 19.4169 4.58309 18.4471V15.6942C4.58309 14.7348 5.37556 13.9424 6.33494 13.9424H9.088C10.0578 13.9424 10.8398 14.7348 10.8398 15.6942V18.4471C10.8398 19.4169 10.0576 20.1989 9.088 20.1989Z" fill="#104651"/>
<path d="M18.6817 20.199H15.9289C14.9693 20.199 14.1768 19.4169 14.1768 18.4472V15.6943C14.1768 14.7349 14.9693 13.9425 15.9289 13.9425L18.6817 13.9423C19.6515 13.9423 20.4336 14.7347 20.4336 15.6941V18.447C20.4336 19.417 19.6515 20.199 18.6817 20.199Z" fill="#104651"/>
</svg>
