<svg width="51" height="51" viewBox="0 0 51 51" fill="none" xmlns="http://www.w3.org/2000/svg">
<circle cx="25.5" cy="25.5" r="25.5" fill="#05313A"/>
<path d="M21.3331 15L19.9999 18.2813H15.3333C14.0405 18.2813 13 19.3057 13 20.5781V33.7032C13 34.9758 14.0407 36 15.3333 36H36.6667C37.9595 36 39 34.9755 39 33.7032V20.5781C39 19.3055 37.9593 18.2813 36.6667 18.2813H32.0001L30.6669 15H21.3331ZM25.9996 20.9063C29.4855 20.9063 32.333 23.7092 32.333 27.1407C32.333 30.5722 29.4856 33.3751 25.9996 33.3751C22.5137 33.3751 19.6663 30.5722 19.6663 27.1407C19.6663 23.7092 22.5137 20.9063 25.9996 20.9063ZM25.9996 22.8752C23.5947 22.8752 21.6662 24.7733 21.6662 27.1409C21.6662 29.5084 23.5945 31.4066 25.9996 31.4066C28.4048 31.4066 30.3331 29.5084 30.3331 27.1409C30.3331 24.7733 28.4048 22.8752 25.9996 22.8752Z" fill="white"/>
</svg>
