<svg width="27" height="28" viewBox="0 0 27 28" fill="none" xmlns="http://www.w3.org/2000/svg">
<path d="M15.7017 13.7082L25.5382 3.88613C25.9345 3.49009 26.089 2.91262 25.9441 2.3715C25.7991 1.83063 25.3764 1.40796 24.8356 1.26287C24.2946 1.11805 23.7171 1.27254 23.3211 1.66884L13.5 11.5063L3.67893 1.66884C3.28293 1.27254 2.70552 1.11805 2.16445 1.26287C1.62364 1.40796 1.20101 1.83066 1.05593 2.3715C0.911123 2.91262 1.06561 3.49009 1.46187 3.88613L11.2984 13.7082L1.46187 23.5303C1.16624 23.8236 1 24.2228 1 24.6389C1 25.0554 1.16624 25.4546 1.46187 25.7476C1.75488 26.0432 2.15403 26.2095 2.57038 26.2095C2.98651 26.2095 3.38567 26.0432 3.67889 25.7476L13.5 15.9101L23.3211 25.7476C23.6144 26.0432 24.0135 26.2095 24.4296 26.2095C24.846 26.2095 25.2452 26.0432 25.5381 25.7476C25.8338 25.4545 26 25.0553 26 24.6389C26 24.2228 25.8338 23.8236 25.5381 23.5303L15.7017 13.7082Z" fill="#104651" stroke="#104651" stroke-width="2"/>
</svg>
