<svg width="192" height="192" viewBox="0 0 192 192" fill="none" xmlns="http://www.w3.org/2000/svg">
<rect x="0.962891" y="0.904327" width="191" height="191" rx="95.5" fill="#D2D0D0"/>
<path d="M77.5404 59.7498C80.3229 55.8627 84.1463 52.921 88.6385 51.2748C97.5701 47.9825 108.138 50.8606 114.17 58.2205C117.26 61.98 119.098 66.5149 119.469 71.379C119.83 76.0944 118.652 80.9478 116.188 84.9836C113.809 88.8812 110.24 92.1311 106.067 93.9896C101.574 95.9968 96.636 96.5809 91.8037 95.6251C82.6279 93.809 75.1194 86.0563 73.6856 76.8061C73.4944 75.5529 73.367 74.2997 73.367 73.0252V73.004C73.3564 68.2886 74.8007 63.5838 77.5407 59.7499L77.5404 59.7498Z" fill="white"/>
<path d="M56.5747 115.644C56.5641 115.58 56.5641 115.505 56.5641 115.431C56.5853 107.508 60.0051 99.7662 65.9736 94.5314C67.4923 93.2039 69.1384 92.0251 70.8907 91.0267C71.6447 90.6019 72.8661 90.6338 73.4607 91.3559C74.5758 92.7153 75.7971 93.9897 77.1247 95.1473C77.4433 95.4234 77.7725 95.6995 78.1017 95.9757C78.1336 96.0075 78.2185 96.0712 78.3035 96.135C78.3141 96.135 78.3141 96.1456 78.3247 96.1456C78.5053 96.2943 78.6965 96.4217 78.8876 96.5598C79.5992 97.0802 80.332 97.5687 81.0859 98.036C81.8187 98.482 82.5728 98.8962 83.3375 99.2892C83.7198 99.4803 84.1128 99.6715 84.5057 99.8414C84.6438 99.9052 84.7818 99.9689 84.9199 100.022C84.9093 100.022 84.888 100.011 84.8774 100.011C84.8986 100.022 84.9624 100.043 85.0686 100.086C85.0261 100.064 84.9836 100.054 84.9517 100.033C84.9836 100.043 85.0261 100.064 85.0473 100.075C85.196 100.139 85.3447 100.192 85.504 100.256C87.1608 100.903 88.8706 101.403 90.6124 101.764C91.0478 101.849 91.4833 101.934 91.9187 101.997C92.0249 102.019 92.1417 102.029 92.2479 102.05H92.2798C92.2479 102.05 92.2585 102.05 92.386 102.061C92.4072 102.061 92.4285 102.072 92.4497 102.072C92.4391 102.072 92.4285 102.072 92.4179 102.061C92.4603 102.061 92.5028 102.072 92.5241 102.072C92.6621 102.093 92.8002 102.104 92.9382 102.125C93.8728 102.22 94.8074 102.284 95.7421 102.305C96.6873 102.327 97.6219 102.295 98.5671 102.231C99.0131 102.199 99.4698 102.157 99.9159 102.104C99.969 102.104 100.171 102.072 100.288 102.061C100.256 102.061 100.213 102.072 100.203 102.072C100.224 102.072 100.256 102.061 100.309 102.061C100.341 102.061 100.362 102.05 100.373 102.05C100.394 102.05 100.426 102.04 100.436 102.04C100.574 102.019 100.712 101.997 100.85 101.976C102.635 101.689 104.398 101.243 106.107 100.649C106.511 100.511 106.925 100.351 107.329 100.192C107.456 100.139 107.594 100.096 107.722 100.033C107.743 100.022 107.775 100.001 107.87 99.9689C107.998 99.9158 108.115 99.8627 108.242 99.8096C109.049 99.4485 109.846 99.0449 110.61 98.6095C111.449 98.1422 112.267 97.6324 113.064 97.0908C113.478 96.804 113.881 96.5067 114.285 96.2093C114.274 96.2199 114.253 96.2305 114.242 96.2412C114.2 96.273 114.189 96.2836 114.179 96.2943C114.2 96.2836 114.317 96.1881 114.349 96.1668C114.338 96.1774 114.317 96.1881 114.296 96.2093C114.381 96.135 114.476 96.0712 114.561 95.9969C114.774 95.827 114.975 95.657 115.177 95.4871C116.685 94.2127 118.055 92.8002 119.298 91.2709C119.882 90.5487 121.114 90.4956 121.868 90.9416C125.627 93.1295 128.835 95.9331 131.352 99.5015C134.049 103.335 135.653 107.828 136.184 112.469C136.407 114.444 136.354 116.441 136.354 118.427V126.721V132.541C136.343 136.449 134.166 140.251 130.545 141.898C128.867 142.652 127.146 142.885 125.341 142.885H67.0772C64.1566 142.885 61.2891 141.802 59.3032 139.614C57.6889 137.83 56.765 135.61 56.6163 133.21C56.5844 132.668 56.6057 132.127 56.6057 131.585V115.644L56.5747 115.644Z" fill="white"/>
</svg>
