<svg width="22" height="12" viewBox="0 0 22 12" fill="none" xmlns="http://www.w3.org/2000/svg">
<path d="M1.14279 0.804088C0.833851 1.09937 0.660156 1.49983 0.660156 1.91751C0.660156 2.33519 0.833851 2.73568 1.14279 3.03093L9.6828 11.1958C9.99116 11.4903 10.4095 11.6559 10.8455 11.6559C11.2814 11.6559 11.6998 11.4903 12.0081 11.1958L20.5481 3.02812C20.9585 2.62983 21.1168 2.05319 20.9644 1.51327C20.8117 0.973585 20.3712 0.551691 19.8071 0.405142C19.2428 0.258598 18.6396 0.409534 18.2226 0.801414L10.8457 7.85952L3.4687 0.804223C3.16015 0.50967 2.74198 0.344102 2.30604 0.344102C1.8699 0.344102 1.45174 0.509675 1.14318 0.804223L1.14279 0.804088Z" fill="#104651"/>
</svg>
