<svg width="30" height="20" viewBox="0 0 30 20" fill="none" xmlns="http://www.w3.org/2000/svg">
<g opacity="0.5">
<path d="M29.7696 9.15691C29.4933 8.78851 23.1371 0.221436 15 0.221436C6.86288 0.221436 0.506717 8.78844 0.230362 9.15691C-0.0767872 9.58679 -0.0767872 10.1702 0.230362 10.6001C0.506667 10.9687 6.86288 19.5663 15 19.5663C23.1371 19.5663 29.4933 10.9993 29.7696 10.6308C30.0768 10.2011 30.0768 9.58685 29.7696 9.15697V9.15691ZM15 17.1098C9.38078 17.1098 4.4371 11.8589 2.77897 9.89386C4.43699 7.92867 9.35008 2.67792 15 2.67792C20.6499 2.67792 25.5629 7.92878 27.221 9.89386C25.563 11.8591 20.6192 17.1098 15 17.1098Z" fill="#104651"/>
<path d="M15.0001 3.32275C11.3769 3.32275 8.42896 6.27065 8.42896 9.89386C8.42896 13.5171 11.3769 16.465 15.0001 16.465C18.6233 16.465 21.5712 13.5171 21.5712 9.89386C21.5712 6.27065 18.6233 3.32275 15.0001 3.32275Z" fill="#104651"/>
</g>
</svg>
