<svg width="25" height="25" viewBox="0 0 25 30" fill="none" xmlns="http://www.w3.org/2000/svg">
<path d="M12.501 0.22144C14.1469 0.22144 15.6376 0.893283 16.7169 1.97915C17.799 3.06501 18.4668 4.56577 18.4668 6.22339C18.4668 7.87931 17.798 9.37898 16.7197 10.4648C15.6376 11.5535 14.1469 12.2253 12.501 12.2253C10.855 12.2253 9.36437 11.5525 8.28504 10.4676C7.20403 9.37898 6.53515 7.87931 6.53515 6.22339C6.53515 4.56577 7.20295 3.06501 8.28227 1.97915L8.31961 1.94522C9.39617 0.87962 10.8733 0.22144 12.501 0.22144ZM0.0008506 26.6532V25.8445C0.0008506 19.9462 3.25241 16.1676 7.41251 14.5127C9.0192 13.874 10.7608 13.5545 12.4999 13.5545C14.2398 13.5545 15.9814 13.874 17.5873 14.5127C21.7484 16.1676 25 19.9465 25 25.8445V26.6532C25 27.3608 24.7126 28.0035 24.251 28.4679C23.7866 28.9323 23.1479 29.2214 22.4472 29.2214H2.55279C1.87038 29.2214 1.2482 28.9478 0.788285 28.5046L0.749041 28.4687C0.287441 28.0043 0 27.3617 0 26.654L0.0008506 26.6532Z" fill="#7E9DA3"/>
</svg>
